<svg data-name="レイヤー 1" xmlns="http://www.w3.org/2000/svg" viewBox="0 0 245.59 339.31"><path d="M73.27 1.6a13.55 13.55 0 00-.6 3.6c0 3.9 6.2 20.4 9.6 25.6 7.1 10.8 21.9 23.1 33.5 27.8s10.8 3-5.6-10.6c-15.1-12.5-20.6-18.3-24-25s-6.9-16.9-6.1-17.7c2-2 29.2 10.5 39.2 18.1 9.5 7.1 15 15.6 16.4 25.1l.8 5 .1-6c.1-4.7-.5-7.3-2.8-12.2-5.4-11.3-15.2-19.8-34.5-29.8-10-5.2-11-5.5-18-5.5-5.8 0-7.5.3-8 1.6zm81.2 46.4c-4.6.8-14.8 3.9-14.8 4.4 0 .2 6.2.1 13.8-.1 14.9-.6 23.4.8 31.5 4.8 8.5 4.3 24.6 15.1 26.3 17.7 2.5 3.6 2.4 17 0 20.7-1.5 2.2-1.5 2.5-.1 2.5 2.2 0 5.4-7.7 6.1-14.7.4-4.5.1-6.6-1.3-9.3-2.3-4.4-8.7-8.9-13.8-9.7-2.8-.4-5.4-1.9-8.8-5-5.9-5.5-15.2-9.9-23.7-11.2-7.3-1.2-8.5-1.2-15.2-.1zm-99 10.5a65.25 65.25 0 00-11.7 4.5c-9.8 4.9-22.1 19.1-22.1 25.4 0 .9 1.1 2.8 2.5 4.1 4.3 4.4 16.5 3.3 31.4-2.9 11.3-4.6 19.9-5.9 40.3-6 10.3-.1 17.9-.4 16.9-.8-3.9-1.4-26-3-33.6-2.3-11.2.9-16.7 2.2-26.1 6.1-9.9 4.1-20.7 6-24.6 4.5-4.1-1.5-3.6-4.9 1.8-12 10.5-14 23-19.5 44.4-19.4a125 125 0 0137.4 5.7c4.2 1.3 7.4 2 7.1 1.6-.7-1.1-10.9-4.4-21.5-7-11.2-2.8-34-3.6-42.2-1.5zm93.7 16.5a15.86 15.86 0 00-4.3 3.2l-2.3 2.5 2.6 1.7c3.5 2.3 7.9 3 10.3 1.7 2.8-1.5 5-8 3.1-9.2-1.7-1.1-6.7-1-9.4.1zm-29.1 23.3c1.1 9.5 6.5 18 14 22 3.3 1.7 5.8 2.2 12.6 2.2 7.3 0 9.4-.4 14.8-2.9 3.4-1.6 6.1-3.1 5.8-3.3s-3.1.3-6.4 1.1c-7.4 2-18.2 2.1-22.6.2-5.9-2.5-10.8-7.7-14.8-16.1l-3.9-8zm82.7 3.3c-1.5 4.1-5.6 7-11.5 8-7.5 1.2-7.5 2.3.1 2.4 6.2 0 7.5-.3 10.1-2.5 3.3-2.7 4.9-7.4 3.5-10-.7-1.2-1.2-.8-2.2 2.1zm-63.5 33.2c-1.8 9.6-11.6 23.6-24.5 35-6.6 5.9-14.4 11.9-32.1 24.7q-18.6 13.5-29 38.6c-3.6 8.7-7.2 21.9-5.9 21.9.5 0 .9-.6.9-1.3 0-2.1 10.9-23.4 15.5-30.2 6.1-9.2 16.7-19.7 26.1-26.1 31.4-21.1 51.4-46 50.2-62.6l-.3-4.3zm63 1.8a61.67 61.67 0 0113.8 25c2 7.7 2.1 24.5.2 33.4-1.6 7.5-1.3 8.9.9 3.6 10.4-24.9 3.4-53.9-15.9-65.7-4.8-2.9-4.6-2.4 1 3.7zm30.3 73.1c3.8 7.6 9.1 23.5 9.3 27.8.3 5-1.7 7.9-7 10.2a9.85 9.85 0 01-10.9-2c-2.6-2.3-3-1.2-.8 2 2.5 3.6 8.9 4.8 14.1 2.8 8.6-3.3 10.4-10.2 6-22.8-2.6-7.3-10.4-21.7-11.8-21.7-.5 0 0 1.7 1.1 3.7zm-25.5 1.8c7.1 27.1 7.2 27.5 4.7 35.5-3 9.5-7.9 13.7-14.8 12.4-4.7-.9-6.7-4.2-5.4-8.8.5-2.1.6-3.4 0-3.1-1.6 1-2.6 6.9-1.7 9.7 1.2 3.5 8.2 6.3 13.2 5.4 8.1-1.5 14.2-12.9 13.3-25.1-.5-7.1-5.3-22.4-8.3-26.1-1.5-1.8-1.5-1.8-1 .1zm-92.4 16.4c0 .4 1.6 1.3 3.5 2 5.8 2 18 10.8 23 16.3 9.3 10.4 13.4 21.7 14.2 39.6.3 6.9 1 11.9 1.5 11.4 1.3-1.3 3.8-14.1 3.8-20a49.35 49.35 0 00-32.1-46.3c-6-2.3-13.9-4-13.9-3zm68.5 20.7c-4.8 2.4-9.1 7.2-12.6 13.7-1.7 3.3-2.7 5.8-2.2 5.6 1.5-.6 18.3-18.9 18.3-20s0-1.2-3.5.7zM21.57 260c-8.8 1.5-16.3 6.9-19.2 14-8.1 19.5 5.7 46 23.8 46 3.8 0 10.5-2.2 10.5-3.4 0-.2-2.2-.1-4.9.2-7 .6-9.6-.3-15.1-5.4-8.6-8-12.9-22.6-10-33.4 2.6-9.7 13-16 26.4-16 3.5 0 5.6-.4 5-.9-1.4-1.3-11.3-1.9-16.5-1.1zm157.7 10.5c-1.3 14-4.7 22.9-11.8 31-2.6 3-2.7 3.5-1.2 3.6 1.1 0 1.4.3.7.6-3.5 1.3-.1 2 12.5 2.6 16.7.8 23.3 2.1 27.2 5.4l3 2.5v-3c0-3.8-4.7-8.5-10.3-10.2s-19-1.4-25.2.5c-2.7.8-5.2 1.5-5.4 1.5a32.66 32.66 0 013.7-2.8c11.1-7.4 15.1-22.5 9.4-35.3l-1.9-4.4zm-25.6 43.4a87.27 87.27 0 00-10 2.2l-4.5 1.3 10.5.8c24.8 1.8 33.3 3.5 37.7 7.5 5 4.7 4.1-.7-.9-5.6a22.67 22.67 0 00-7.7-4.5c-5.8-1.9-17.9-2.7-25.1-1.7zm-79 15.9c5.5 3 12.7 4.2 24 4.1 8.2-.2 13.4.4 23.5 2.5 14.8 3.2 29.4 3.8 38.8 1.6 3.2-.7 6-1.6 6.1-1.9s-5.5-.6-12.7-.6a106.73 106.73 0 01-26.7-3c-12.2-2.7-15.2-3-32-3-10.2 0-19.8-.4-21.5-.8-2.9-.8-2.9-.7.5 1.1z" opacity=".9"/></svg>